<?xml version="1.0" standalone="no"?>
<!DOCTYPE svg PUBLIC "-//W3C//DTD SVG 20010904//EN"
 "http://www.w3.org/TR/2001/REC-SVG-20010904/DTD/svg10.dtd">
<svg version="1.0" xmlns="http://www.w3.org/2000/svg"
 width="331" height="270">

<g transform="translate(0.000000,470.000000) scale(0.100000,-0.100000)"
fill="#000000" stroke="none">
<path d="M2885 4375 c-301 -66 -554 -276 -675 -560 -20 -47 -71 -235 -105
-390 -32 -146 -51 -200 -71 -201 -10 -1 -81 -2 -156 -3 l-138 -1 0 -85 0 -85
270 0 c149 0 314 -5 368 -11 274 -29 507 -144 712 -349 192 -192 305 -437 335
-728 l7 -63 32 7 c70 14 138 77 155 142 6 21 9 121 7 227 -2 105 -4 623 -5
1153 l-1 962 -337 -1 c-241 0 -355 -4 -398 -14z m223 -949 c1 -251 -1 -453 -6
-458 -5 -5 -21 1 -38 15 -39 33 -198 122 -254 142 -25 9 -52 20 -61 25 -9 5
-47 16 -85 25 -38 10 -72 20 -76 24 -7 6 6 70 36 186 8 28 21 84 31 125 25
107 62 177 125 240 76 77 203 132 290 127 l35 -2 3 -449z"/>
<path d="M1744 2883 c4 -36 16 -72 31 -95 26 -39 89 -78 125 -78 20 0 21 -4
15 -42 -15 -100 -60 -262 -79 -290 -32 -48 -84 -69 -180 -75 l-83 -6 4 -246
c2 -135 6 -252 9 -260 4 -11 22 -13 93 -8 272 20 466 120 590 306 33 51 74
145 86 196 14 64 105 398 109 403 8 7 119 -24 175 -50 115 -52 241 -155 319
-260 88 -119 152 -294 152 -415 l0 -63 106 0 106 0 -7 68 c-17 170 -85 359
-182 504 -161 242 -448 421 -735 458 -40 5 -205 10 -367 10 l-294 0 7 -57z"/>
<path d="M296 1374 c-9 -8 -19 -27 -22 -42 -3 -15 -10 -40 -15 -57 -14 -46
-79 -315 -79 -326 0 -5 20 -9 44 -9 l44 0 12 49 c8 35 17 51 32 54 24 7 112 2
126 -7 5 -3 13 -26 16 -51 l7 -45 50 0 c27 0 49 4 49 9 0 5 -11 62 -25 127
-36 165 -65 305 -65 310 0 2 -36 4 -79 4 -59 0 -84 -4 -95 -16z m114 -156 c9
-49 16 -88 16 -89 -5 -6 -103 -3 -107 4 -8 11 21 147 34 165 24 31 41 7 57
-80z"/>
<path d="M907 1384 c-3 -3 -6 -105 -7 -225 l-1 -219 136 0 137 0 29 29 29 29
0 161 c0 171 -6 202 -47 220 -25 11 -265 16 -276 5z m225 -86 c2 -7 3 -35 3
-63 -1 -27 -3 -87 -3 -133 l-2 -83 -62 3 -63 3 -3 129 c-1 72 0 136 2 143 7
18 122 18 128 1z"/>
<path d="M1570 1378 c0 -7 19 -108 42 -225 l41 -213 83 0 c82 0 84 0 99 29 8
16 31 98 50 183 19 84 40 169 45 189 14 50 15 49 -34 49 -52 0 -44 16 -86
-180 -33 -155 -44 -190 -59 -190 -15 0 -31 35 -37 82 -5 37 -34 195 -50 266
-4 19 -11 22 -49 22 -29 0 -45 -4 -45 -12z"/>
<path d="M2280 1165 l0 -225 50 0 50 0 0 225 0 225 -50 0 -50 0 0 -225z"/>
<path d="M2804 1380 c-39 -15 -54 -50 -54 -121 0 -51 5 -72 20 -91 21 -27 84
-48 143 -48 39 0 50 -20 38 -68 -7 -27 -9 -27 -99 -30 l-92 -3 0 -39 0 -40
116 0 c114 0 116 0 145 29 26 26 29 36 29 93 0 35 -3 73 -6 86 -9 34 -72 62
-139 62 l-56 0 3 48 3 47 93 3 92 3 0 39 0 40 -107 -1 c-60 0 -118 -4 -129 -9z"/>
<path d="M3410 1165 l0 -225 135 0 135 0 0 40 0 39 -82 3 -83 3 0 50 0 50 73
3 72 3 0 39 0 40 -76 0 -75 0 3 48 3 47 83 3 82 3 0 39 0 40 -135 0 -135 0 0
-225z"/>
<path d="M4046 1375 c-3 -8 -4 -109 -3 -225 l2 -210 50 0 50 0 0 76 c0 88 13
106 61 89 23 -8 32 -23 53 -88 l25 -77 48 0 c26 0 48 3 48 6 0 17 -45 131 -57
145 -17 21 -17 36 2 43 37 14 54 138 27 196 -25 51 -51 60 -183 60 -95 0 -118
-3 -123 -15z m220 -89 c3 -13 4 -38 2 -57 l-3 -34 -60 0 -60 0 -3 44 c-5 66 0
71 62 71 50 0 56 -2 62 -24z"/>
<path d="M4764 1380 c-36 -14 -54 -54 -54 -122 0 -91 22 -115 115 -130 97 -15
95 -14 95 -51 0 -50 -14 -57 -112 -57 l-88 0 0 -40 0 -40 114 0 c98 0 117 3
139 20 34 27 51 81 43 137 -11 79 -45 107 -136 112 -30 1 -59 6 -63 10 -5 5
-7 26 -5 47 l3 39 93 3 92 3 0 39 0 40 -107 -1 c-60 0 -117 -4 -129 -9z"/>
<path d="M780 530 c0 -159 0 -160 23 -160 22 0 22 1 22 160 0 159 0 160 -22
160 -23 0 -23 -1 -23 -160z"/>
<path d="M1050 530 c0 -153 1 -160 20 -160 19 0 20 7 20 116 0 88 3 115 13
112 6 -2 45 -53 86 -114 65 -96 77 -109 105 -112 l31 -3 -2 153 c-1 84 -2 156
-2 161 -1 4 -10 7 -21 7 -19 0 -20 -7 -20 -115 0 -63 -4 -115 -9 -115 -5 0
-37 42 -72 93 -34 50 -70 102 -78 114 -10 14 -27 22 -43 23 l-28 0 0 -160z"/>
<path d="M1550 666 c0 -23 5 -25 48 -28 l47 -3 3 -132 c2 -124 4 -133 22 -133
18 0 20 9 22 133 l3 132 48 3 c42 3 47 5 47 28 l0 24 -120 0 -120 0 0 -24z"/>
<path d="M2012 530 l1 -160 114 0 113 0 0 25 c0 25 -1 25 -91 25 l-90 0 3 43
3 42 68 3 c57 2 67 6 65 20 -2 13 -17 18 -68 22 l-65 5 -3 43 -3 42 90 0 c90
0 91 0 91 25 l0 25 -114 0 -115 0 1 -160z"/>
<path d="M2461 530 l1 -160 114 0 114 0 0 25 c0 25 -1 25 -90 25 l-90 0 0 135
0 135 -25 0 -25 0 1 -160z"/>
<path d="M2910 530 l0 -160 25 0 25 0 0 160 0 160 -25 0 -25 0 0 -160z"/>
<path d="M3180 530 l0 -160 80 0 c86 0 131 15 150 49 15 29 12 88 -6 116 -9
14 -13 32 -9 45 4 11 4 34 0 50 -10 43 -49 60 -140 60 l-75 0 0 -160z m168 78
c4 -32 -19 -41 -84 -36 -28 2 -40 8 -42 21 -8 40 5 48 65 45 55 -3 58 -5 61
-30z m20 -105 c16 -23 15 -48 -4 -67 -22 -22 -129 -22 -138 0 -7 19 -8 58 -1
76 8 20 126 13 143 -9z"/>
<path d="M3641 531 l1 -161 24 0 c22 0 24 4 24 54 l0 53 77 5 c70 5 79 8 100
34 32 40 31 103 -1 141 -23 27 -29 28 -125 31 l-101 4 1 -161z m193 93 c9 -8
16 -26 16 -39 0 -41 -25 -55 -96 -55 l-64 0 0 55 0 55 64 0 c45 0 69 -5 80
-16z"/>
<path d="M4170 668 c-43 -30 -63 -86 -56 -155 12 -110 48 -143 154 -143 75 0
115 19 137 66 17 37 20 137 5 181 -24 69 -168 99 -240 51z m181 -47 c21 -17
24 -28 24 -91 0 -63 -3 -74 -24 -91 -28 -23 -136 -27 -165 -6 -36 26 -38 147
-4 187 25 28 135 29 169 1z"/>
</g>
</svg>
