<?xml version="1.0" encoding="UTF-8"?>
<svg version="1.1" viewBox="0 0 1772 945" width="136" height="60" xmlns="http://www.w3.org/2000/svg">
<path transform="translate(234,139)" d="m0 0h21l12 4 18 10 25 15 32 19 25 15 32 19 20 12 32 19 25 15 32 19 13 11 14 11 13 11 10 11 14 19 12 21 9 20 7 21 5 22 2 15 1 13v21l-3 27-6 26-7 20-13 27-9 14-12 16-11 12-13 13-14 11-15 10-25 13-19 7-18 5-25 4-22 1-26-2-21-4-19-6-15-6-16-8-15-9-16-12-12-11-15-15-13-17-11-18-9-17-9-24-4-15-6-44v-292l3-12 7-14 10-11 11-7 10-4zm158 226-17 3-15 5-15 8-13 10-11 11-9 13-8 16-5 15-3 21v11l3 20 6 18 9 17 8 10 7 8 14 11 14 8 16 6 16 3h22l19-4 17-7 11-7 10-8 11-11 9-13 8-16 5-16 2-12v-25l-4-20-6-15-9-16-11-13-11-10-14-9-16-7-17-4-8-1z" fill="#77B458"/>
<path transform="translate(819,269)" d="m0 0h206l21 2 19 5 17 7 14 8 13 10 13 13 10 14 8 16 5 15 2 10 1 17-2 19-4 15-6 13-7 12-5 7 17 11 11 9 13 13 10 14 8 16 5 14 3 18v30l-3 17-6 18-8 15-9 12-12 13-14 11-17 10-20 8-23 5-8 1h-263l-18-3-20-6-19-9-12-8-13-11-9-9-11-15-8-16-6-18-2-12-1-14v-174l1-16 4-19 6-15 9-16 9-11 7-8 11-9 13-9 15-8 16-6 18-4zm0 63-14 3-16 8-10 9-8 9-6 12-2 8-1 33 1 22h266l16-4 11-6 10-9 7-9 4-10 1-5v-18l-4-13-7-10-8-8-10-6-10-4-9-2zm-41 166-15 1-1 4v51l1 22 4 12 6 10 9 10 11 8 11 5 11 3 9 1h231l15-2 14-5 11-7 9-8 7-10 5-11 2-10v-21l-3-12-6-12-9-10-8-7-14-7-16-4-34-1z" fill="#58585A"/>
<path transform="translate(1364,269)" d="m0 0h317l7 3 3 4 1 4v41l-3 7-3 3-4 1-320 1-15 4-11 6-12 11-7 10-5 12-1 4v21l4 12 6 10 9 10 10 7 11 5 14 3 244 1 20 3 21 7 16 8 13 9 12 11 7 7 10 14 8 16 6 18 2 12v27l-4 20-8 19-8 13-8 10-5 6-8 7-12 9-16 9-15 6-16 4-14 2h-332l-5-4-2-4v-46l4-6 3-2 324-1 12-2 12-5 10-6 6-5 6-8 6-12 2-8v-19l-4-13-7-11-4-5-12-9-12-5-7-2-10-1-247-1-18-3-16-5-14-6-16-10-13-11-10-10-11-15-8-16-5-13-3-14-1-8v-19l3-18 6-18 8-15 8-11 11-13 11-9 15-10 16-8 18-6 16-3z" fill="#58585A"/>
<path transform="translate(1794,268)" d="m0 0h53l7 2 4 4 1 3v401l-4 6-4 2h-60l-5-4-2-4v-402l5-6z" fill="#585959"/>
<path transform="translate(210,755)" d="m0 0 15 1 11 4 7 6 3 5 1 4v9l-5 10-8 6h-3v2l5 1 9 6 5 9 1 10-3 10-6 8-12 6-11 2h-25l-5-1v-95l1-1zm-5 10-3 1v31h18l7-3 5-5 2-4v-8l-3-6-5-4-8-2zm-3 42v37h18l9-3 5-4 3-6v-11l-4-7-6-4-7-2z" fill="#5A5D5A"/>
<path transform="translate(1545,782)" d="m0 0h10l10 4 6 6 1-8h12l-1 69-3 12-5 9-9 6-10 3h-18l-10-3-3-2 1-7 1-3 9 3 4 1h15l8-4 4-5 2-6 1-14-8 7-9 3h-10l-9-3-9-8-5-10-2-8v-10l3-12 6-10 7-6zm2 10-6 3-5 5-4 8-1 6v9l3 10 6 7 6 3h11l7-4 4-5 2-5v-24l-5-8-6-4-3-1z" fill="#595C5A"/>
<path transform="translate(650,755)" d="m0 0h19l10 3 1 4-3 7-5-1-8-2h-11l-8 4-3 4-1 9 3 6 9 6 18 8 9 8 4 9v13l-3 8-6 7-10 5-9 2h-11l-16-4-3-2 1-7 1-3 6 1 9 3h15l8-4 4-6v-11l-4-6-9-5-17-8-8-7-4-8-1-9 3-10 7-8 7-4z" fill="#595C59"/>
<path transform="translate(724,782)" d="m0 0h11l10 3 9 6 6 9 3 8 1 11-2 12-6 12-8 7-10 4-5 1h-9l-10-3-9-6-6-9-3-8-1-5v-10l3-12 6-9 8-7zm0 10-6 3-6 7-3 7-1 13 2 9 5 8 5 4 4 2h10l8-4 6-8 2-7v-15l-3-9-7-8-5-2z" fill="#595C5A"/>
<path transform="translate(1008,782)" d="m0 0h11l12 4 9 8 5 10 2 8v11l-3 12-6 9-7 6-9 4-6 1h-9l-10-3-8-6-6-7-4-11v-18l4-11 6-8 9-6zm-1 10-7 4-6 8-2 7v15l4 10 4 5 7 4h11l8-5 4-5 3-7 1-13-2-9-5-8-6-5-3-1z" fill="#595C59"/>
<path transform="translate(1770,782)" d="m0 0h10l11 4 7 7 4 9 1 4v15h-49l3 11 4 6 8 5 4 1h11l10-2h4l2 8-7 3-11 2h-11l-9-2-10-6-6-8-3-7-1-5v-15l4-13 6-8 8-6zm0 9-8 4-6 8-2 8 1 1h36l-1-10-4-6-5-4-4-1z" fill="#595B5A"/>
<path transform="translate(1475,782)" d="m0 0h11l9 3 8 7 5 11 1 4v14h-49l3 12 4 6 8 4 4 1h11l13-3 2 6v4l-10 3-7 1h-12l-10-3-9-6-6-8-3-9v-19l4-11 4-6 8-7zm1 9-7 3-6 7-3 8v3h36l1-5-4-10-5-4-5-2z" fill="#595B5A"/>
<path transform="translate(1162,782)" d="m0 0h11l9 3 8 7 4 8 2 7v14h-49l3 12 4 6 8 4 4 1h11l13-2 2 5v4l-10 3-7 1h-12l-10-3-9-6-6-9-3-8v-19l4-11 6-8 6-5zm1 9-7 3-6 7-3 8 1 3h36l-1-9-4-7-6-4-3-1z" fill="#595B59"/>
<path transform="translate(1663,782)" d="m0 0h12l9 3 7 6 4 10 1 35v17h-11l-2-7-6 5-6 3-5 1h-8l-8-3-5-4-4-8v-11l4-8 8-7 12-4 7-1h11l-3-11-4-4-2-1h-15l-8 3h-3l-2-8 8-4zm8 36-10 3-5 4-2 4v9l3 5 4 2h10l6-3 5-6 1-2v-16z" fill="#595C5A"/>
<path transform="translate(1359,782)" d="m0 0h9l9 3 6 5 5 10 1 6v47h-13l-1-46-3-8-4-4-2-1h-12l-7 5-3 5-1 4-1 45h-13v-69h11l2 9 5-5 8-5z" fill="#595C5A"/>
<path transform="translate(550,782)" d="m0 0h11l9 3 8 7 3 7 1 5 1 49h-12v-8l-9 7-9 3h-9l-8-3-7-8-2-7 1-9 4-8 8-6 7-3 11-2h11l-2-10-4-5-3-1h-15l-10 3-2-5 1-4 10-4zm7 36-10 3-5 5-2 5v6l4 6 3 2h11l8-5 3-5 1-4v-13z" fill="#595C5A"/>
<path transform="translate(469,783)" d="m0 0 12 1v69h-11v-10h-2l-2 4-9 6-7 2h-8l-9-3-7-8-3-7-1-5v-48h13l1 46 4 10 5 3h10l6-3 5-6 1-3 1-47z" fill="#595B5A"/>
<path transform="translate(810,784)" d="m0 0h13l1 46 3 8 4 4 2 1h10l6-3 5-6 1-3 1-47h13v69h-11v-10l-5 5-10 6-5 1h-8l-9-3-7-8-3-7-1-5z" fill="#595A5A"/>
<path transform="translate(1091,782)" d="m0 0h9l9 3 5 4 6 12 1 10v42h-13l-1-45-3-9-6-5h-12l-6 4-4 6-1 3-1 46h-13v-69h11v10l5-5 10-6z" fill="#595B59"/>
<path transform="translate(311,783)" d="m0 0 12 1 1 40 2 11 4 6 4 2h10l8-5 3-5 1-5 1-44h12l1 69h-11l-2-9-9 8-9 3h-9l-8-3-5-4-5-10-1-4-1-39z" fill="#585A5A"/>
<path transform="translate(915,782)" d="m0 0h12l11 3-1 7-1 3-11-2h-8l-9 3-6 5-4 9-1 4v9l3 9 4 6 6 4 11 2 15-2 2 9-9 3-6 1h-11l-10-3-9-6-7-10-3-12v-10l4-13 6-8 7-6 10-4z" fill="#595D5A"/>
<path transform="translate(1226,782)" d="m0 0h11l10 3 1 5-2 5-5-1-11-2-7 3-2 3v6l5 5 16 8 6 5 3 6v11l-4 8-5 4-7 3-5 1h-10l-11-3-3-2 2-9 5 1 6 2h12l5-3 2-4-1-7-4-4-17-8-7-8-2-9 3-9 5-5 7-4z" fill="#595C5A"/>
<path transform="translate(1834,782)" d="m0 0h10l10 3 2 3-3 7-15-3-7 2-3 4v6l5 5 16 8 7 6 2 4v13l-4 7-6 5-11 3h-10l-13-4-1-3 2-7 5 1 6 2h12l6-2 1-10-3-5-17-8-8-7-2-4v-11l4-7 6-5z" fill="#595C59"/>
<path transform="translate(1420,767)" d="m0 0h3v17h18v9h-18l1 45 2 4 2 1 12 1v9l-7 2h-8l-8-3-4-5-2-4-1-6v-44h-10l-1-1v-8l2-1 9 1v-13z" fill="#5B6059"/>
<path transform="translate(390,784)" d="m0 0h13v74l-2 9-6 9-7 5-14 3-2-6v-5l9-2 5-4 3-8z" fill="#5A5D59"/>
<path transform="translate(1714,751)" d="m0 0h13v102h-13z" fill="#5A5F59"/>
<path transform="translate(778,751)" d="m0 0h13v102h-13z" fill="#5A5E59"/>
<path transform="translate(500,751)" d="m0 0h13v102h-13z" fill="#5A5F59"/>
<path transform="translate(1296,756)" d="m0 0h12v97h-12l-1-1v-95z" fill="#585A59"/>
<path transform="translate(293,782)" d="m0 0h7v12l-11 2-6 5-3 6-1 4-1 42h-13v-69h11l1 12 6-9 6-4z" fill="#5A5E5A"/>
<path transform="translate(1629,782)" d="m0 0h7v12l-11 2-6 5-3 6-1 5-1 41h-12l-1-41v-28h11l1 10 9-9z" fill="#595B5A"/>
<path transform="translate(951,784)" d="m0 0h13v69h-13z" fill="#5A5F59"/>
<path transform="translate(347,753)" d="m0 0h13l-2 4-12 14-2 3h-10l8-14z" fill="#5B615A"/>
<path transform="translate(394,756)" d="m0 0h6l4 4 1 6-4 5-7 1-5-5v-6z" fill="#5A6059"/>
<path transform="translate(955,756)" d="m0 0 7 1 3 3 1 6-4 5-7 1-5-4v-7z" fill="#5B5E5B"/>
</svg>
