<?xml version="1.0" encoding="UTF-8"?>
<svg version="1.1" viewBox="0 0 1772 945" width="136" height="60" xmlns="http://www.w3.org/2000/svg">
<path transform="translate(1081,123)" d="m0 0h19l12 3 8 4 8 7 5 8 4 13 1 12-2 12-8 16-11 12-13 9-19 9-38 12-25 10-19 9-21 12-19 13-11 9-12 11-9 9-10 13-8 13-7 14-6 18-3 16v32l4 22 4 11 8 14 8 10 8 8 13 9 15 7 14 4 15 2h19l22-3 13-3 3 1-9 7-8 9-5 12-1 5-1 16-5-2-19-9-18-6-14-3-10-1h-12l-14 2-14 5-11 6-13 11-10 13-2 2-4-8-7-8-13-8-15-5-16-3-10-1h-27l-30 3-29 5-31 7-36 10-22 7-3-1 9-11 12-17 14-21 9-15 12-22 8-20 3-11 1-7v-8l-3-10-4-5-8-4-5-1h-21l-24 5-30 10-29 12-26 12-29 14-27 14-22 12-27 15-24 14-26 15-28 17-20 12h-3l10-12 9-11 11-13 12-14 12-13 7-8 16-17 48-48 8-7 7-7 8-7 11-10 11-9 10-9 11-9 16-13 17-13 21-16 20-14 19-13 20-13 21-13 26-15 26-14 32-16 32-14 34-13 36-12 36-10 38-8 32-5 28-3 40-2h38l1-10-3-7-5-4-12-3h-11l-15 2h-5l4-3 23-9 22-6z" fill="#58585A"/>
<path transform="translate(1113,303)" d="m0 0 12 1 14 5 14 8 13 11 14 14 13 17 12 19 3 5v2l6 2 53 23 46 20 16 7 5-1 6-2-2 4-12 14-6 8 23 6 40 14 7 3-4-13-6-11 1-2 8 7 8 8 12 16 13 21 5 10-1 9-7 14-3 3-9-1-14 8-8 3-12 1 5-5 8-6 1-3-17-1h-36l-31 3-36 6-36 8-29 8h-2l-7-21-8-16-9-12-5-6-13-10-16-8-12-4-19-3h-21l-20 3-4-1 11-13 9-16 5-15 1-6v-19l-5-19-10-19-11-14-11-11 2-1 11 4 14 8 11 8 11-1-6-11-12-13 1-2 11 4 11 8 10 9 7 6 9-1-8-16-8-10 4-1 13 7 12 11 9 10 5 8v-12l-4-15-8-16-11-14-11-11-15-11zm161 146-3 10h25l-1-2-19-8z" fill="#58585A"/>
<path transform="translate(1157,631)" d="m0 0h18l4 16 27 123 2 8 27-124 5-22 1-1h18l2 5 27 124 3 14v4h2l1-9 30-137 1-1h18l-2 13-22 100-17 78h-20l-27-124-4-18v-5h-2l-1 9-30 137-1 1h-19l-27-123-14-64z" fill="#9FC54D"/>
<path transform="translate(191,631)" d="m0 0h55l13 3 10 6 6 7 5 12 1 5v12h-18l-2-12-5-8-8-4-6-1h-48l-9 2-6 4-4 8-1 5v114l4 11 5 4 9 3h53l8-3 5-4 3-6 1-4v-45l-2-2-10 1-49 12h-4v-20l58-14h7l8 3 5 5 3 4 3 10v50l-3 11-5 9-9 8-11 4-5 1h-60l-11-3-9-5-7-8-4-9-2-10v-120l2-10 4-9 6-8 10-6z" fill="#59595B"/>
<path transform="translate(1387,688)" d="m0 0h47l15 2 10 4 8 7 5 10 2 10v12l-2 10-4 8-7 6-18 5-75 18h-2l3 12 6 7 9 3h53l9-3 5-5 3-7 2-10h17l1 1-1 14-4 11-6 9-9 6-8 3-6 1h-59l-12-3-8-5-7-7-5-12-2-15v-50l2-15 4-9 6-8 9-6 10-3zm-6 20-8 4-5 6-2 6v36l11-2 74-18 5-5-1-12-4-8-6-5-5-2z" fill="#9FC54D"/>
<path transform="translate(920,688)" d="m0 0h46l14 2 9 4 8 6 6 10 3 12v66l-3 12-6 10-8 7-11 4-5 1h-60l-13-3-10-6-6-8-3-8-1-4v-19l3-10 4-6 5-4 8-3 83-20h5l-3-12-4-6-9-4h-58l-8 4h-2l-2 4-3 9-1 7h-18v-10l3-12 4-8 4-5 9-6 10-3zm67 62-82 20-6 3-1 2v9l3 9 5 6 6 3 5 1h53l8-3 6-5 4-10v-35z" fill="#5B5B5D"/>
<path transform="translate(484,688)" d="m0 0h46l14 2 12 6 7 7 5 11 2 10v62l-2 10-4 10-7 8-11 6-9 2h-60l-13-3-10-6-6-8-4-11v-21l3-10 7-8 6-3 91-22-2-10-4-6-6-4-3-1h-58l-7 3-5 5-3 8-1 8h-18v-12l4-13 6-9 8-6 12-4zm67 62-83 20-5 3-1 1v12l4 9 7 6 7 2h53l9-3 5-4 4-8 1-5v-33z" fill="#5A5A5C"/>
<path transform="translate(808,631)" d="m0 0h18v153l-2 12-4 9-6 8-10 6-12 3h-59l-12-3-8-5-8-9-4-10-2-16v-48l2-15 4-10 6-8 9-6 10-3 9-1h69zm-75 77-8 4-5 6-2 6v62l3 8 8 7 7 2h53l9-3 5-4 4-9 1-5v-74z" fill="#5C5C5E"/>
<path transform="translate(1491,631)" d="m0 0h18v57h68l14 2 9 4 8 7 5 8 3 9 1 6v63l-3 13-6 10-7 6-8 4-9 2h-60l-12-3-9-6-6-7-4-8-2-9zm18 77v77l3 8 5 6 6 3 4 1h53l9-3 6-5 4-11v-57l-3-10-8-7-5-2z" fill="#9FC54D"/>
<path transform="translate(1025,688)" d="m0 0h69l16 2 12 4 11 7 7 8 7 14 3 13 1 12v74h-19l-1-82-4-13-6-9-9-6-11-3-59-1v114h-18v-133z" fill="#5F5F61"/>
<path transform="translate(300,688)" d="m0 0h17l1 92 2 10 4 7 8 4 4 1h53l9-3 4-2 4-10 1-9 1-90h17l1 1v94l-3 16-5 9-5 5-5 4-10 4-6 1h-59l-12-3-10-6-6-8-4-9-2-13v-94z" fill="#59595B"/>
<path transform="translate(639,688)" d="m0 0h52v20l-59 1-10 3-9 6-6 8-3 8-2 11-1 77h-18v-81l3-16 5-12 7-9 8-7 11-5 12-3z" fill="#5D5D5E"/>
<path transform="translate(844,688)" d="m0 0h17l1 1v133h-18z" fill="#59595B"/>
<path transform="translate(849,647)" d="m0 0h8l6 4 2 5v8l-3 6-7 3-8-1-5-4-1-3v-11l5-6z" fill="#5B5B5D"/>
<path transform="translate(1253,440)" d="m0 0 13 5 8 4-2 9-5 2-5-1-9-17z" fill="#9FC54D"/>
<path transform="translate(1017,143)" d="m0 0 2 1z" fill="#58585A"/>
<path transform="translate(1044,499)" d="m0 0" fill="#58585A"/>
<path transform="translate(1379,456)" d="m0 0" fill="#58585A"/>
</svg>
